# xmcd
#
# Track frame offsets:
#	150
#	22849
#	48752
#	74357
#	109218
#	125707
#	159881
#	192373
#	215208
#	239911
#
# Disc length: 3625 seconds
#
# Revision: 1
# Processed by: cddbd v1.5.2PL0 Copyright (c) Steve Scherf et al.
# Submitted via: audiograbber 1.83.01
#
DISCID=910e270a
DTITLE=Bill Bruford's Earthworks - Heavenly Bodies-Disc 2-2019 Summerfold Remas
DTITLE=ter
DYEAR=2019
DGENRE=Jazz
TTITLE0=No Truce with the Furies (1998)
TTITLE1=Dewey-Eyed then Dancing (1998
TTITLE2=A Part and Yet Apart (1998)
TTITLE3=Rervel Without a Pause (2000)
TTITLE4=The Sound of Surprise (2000)
TTITLE5=White Knuckle Wedding (2003)
TTITLE6=Youth (2005)
TTITLE7=Rosa Ballerina (2004)
TTITLE8=Thud (2004)
TTITLE9=Blues for Little Joe (2003)
EXTD=
EXTT0=
EXTT1=
EXTT2=
EXTT3=
EXTT4=
EXTT5=
EXTT6=
EXTT7=
EXTT8=
EXTT9=
PLAYORDER=
